<svg width="159" height="15" viewBox="0 0 159 15" fill="none" xmlns="http://www.w3.org/2000/svg">
<path d="M30.6284 13.9773L29.6242 11.4205H23.9337L22.9295 13.9773H20.0842L25.2726 1.19324H28.4526L33.6411 13.9773H30.6284ZM24.9379 9.2046H28.7874L26.9463 4.26142L24.9379 9.2046Z" fill="white"/>
<path d="M36.9884 8.86369C36.9884 9.71596 37.1558 10.5682 37.6579 11.0796C38.16 11.591 38.8295 11.9319 39.6663 11.9319C40.5032 11.9319 41.1726 11.591 41.5074 11.0796C42.0095 10.5682 42.1768 9.88642 42.1768 8.86369V1.19324H44.8547V8.69324C44.8547 9.88642 44.6874 10.7387 44.1853 11.591C43.6832 12.4432 43.1811 12.9546 42.3442 13.466C41.5074 13.9773 40.5032 14.1478 39.4989 14.1478C38.3274 14.1478 37.4905 13.9773 36.6537 13.466C35.8168 12.9546 35.1474 12.4432 34.8126 11.591C34.3105 10.7387 34.1432 9.71596 34.1432 8.69324V1.19324H36.8211V8.86369H36.9884Z" fill="white"/>
<path d="M46.3611 1.19324H56.5705V3.5796H52.8884V13.9773H50.2105V3.75006H46.5284V1.19324H46.3611Z" fill="white"/>
<path d="M62.9305 1.02271C64.1021 1.02271 65.2737 1.36361 66.2779 1.87498C67.2821 2.38634 68.1189 3.23861 68.6211 4.26134C69.1232 5.28407 69.4579 6.3068 69.4579 7.67043C69.4579 9.03407 69.1232 10.0568 68.6211 11.0795C68.1189 12.1023 67.2821 12.9545 66.2779 13.4659C65.2737 13.9773 64.1021 14.3182 62.9305 14.3182C61.7589 14.3182 60.5874 13.9773 59.5832 13.4659C58.5789 12.9545 57.7421 12.1023 57.24 11.0795C56.7379 10.0568 56.4032 8.86361 56.4032 7.67043C56.4032 6.47725 56.7379 5.28407 57.24 4.26134C57.7421 3.23861 58.5789 2.38634 59.5832 1.87498C60.5874 1.36361 61.7589 1.02271 62.9305 1.02271ZM62.9305 3.57952C62.2611 3.57952 61.5916 3.74998 61.0895 4.09089C60.5874 4.4318 60.0853 4.94316 59.7505 5.62498C59.4158 6.3068 59.2484 6.98861 59.2484 7.67043C59.2484 8.35225 59.4158 9.03407 59.7505 9.71589C60.0853 10.3977 60.5874 10.9091 61.0895 11.25C61.5916 11.5909 62.2611 11.7613 62.9305 11.7613C63.6 11.7613 64.2695 11.5909 64.7716 11.25C65.2737 10.9091 65.7758 10.3977 66.1105 9.71589C66.4453 9.03407 66.6126 8.35225 66.6126 7.67043C66.6126 6.98861 66.4453 6.3068 66.1105 5.62498C65.7758 4.94316 65.2737 4.4318 64.7716 4.09089C64.2695 3.74998 63.6 3.57952 62.9305 3.57952Z" fill="white"/>
<path d="M76.4874 1.19324C77.659 1.19324 78.8305 1.53415 79.8347 2.04551C80.839 2.55687 81.5084 3.40915 82.0105 4.26142C82.5126 5.28415 82.8474 6.30687 82.8474 7.50006C82.8474 8.69324 82.5126 10.0569 82.0105 10.9091C81.5084 11.9319 80.6716 12.6137 79.6674 13.1251C78.6632 13.6364 77.4916 13.9773 76.32 13.9773H71.299V1.19324H76.4874ZM76.4874 11.591C77.1568 11.591 77.8263 11.4205 78.3284 11.0796C78.8305 10.7387 79.3326 10.2273 79.6674 9.71596C80.0021 9.03415 80.1695 8.35233 80.1695 7.67051C80.1695 6.81824 80.0021 6.13642 79.6674 5.62506C79.3326 4.94324 78.9979 4.60233 78.3284 4.26142C77.8263 3.92051 77.1568 3.75006 76.4874 3.75006H74.1442V11.591H76.4874Z" fill="white"/>
<path d="M89.8768 1.02271C91.0484 1.02271 92.22 1.36361 93.2242 1.87498C94.2284 2.38634 95.0653 3.23861 95.5674 4.26134C96.0695 5.28407 96.4042 6.3068 96.4042 7.67043C96.4042 9.03407 96.0695 10.0568 95.5674 11.0795C95.0653 12.1023 94.2284 12.9545 93.2242 13.4659C92.22 13.9773 91.0484 14.3182 89.8768 14.3182C88.7053 14.3182 87.5337 13.9773 86.5295 13.4659C85.5253 12.9545 84.6884 12.1023 84.1863 11.0795C83.6842 10.0568 83.3495 8.86361 83.3495 7.67043C83.3495 6.47725 83.6842 5.28407 84.1863 4.26134C84.6884 3.23861 85.5253 2.38634 86.5295 1.87498C87.5337 1.36361 88.7053 1.02271 89.8768 1.02271ZM89.8768 3.57952C89.2074 3.57952 88.5379 3.74998 88.0358 4.09089C87.5337 4.4318 87.0316 4.94316 86.6968 5.62498C86.3621 6.3068 86.1947 6.98861 86.1947 7.67043C86.1947 8.35225 86.3621 9.03407 86.6968 9.71589C87.0316 10.3977 87.5337 10.9091 88.0358 11.25C88.5379 11.5909 89.2074 11.7613 89.8768 11.7613C90.5463 11.7613 91.2158 11.5909 91.7179 11.25C92.22 10.9091 92.7221 10.3977 93.0568 9.71589C93.3916 9.03407 93.5589 8.35225 93.5589 7.67043C93.5589 6.98861 93.3916 6.3068 93.0568 5.62498C92.7221 4.94316 92.22 4.4318 91.7179 4.09089C91.2158 3.74998 90.5463 3.57952 89.8768 3.57952Z" fill="white"/>
<path d="M106.781 5.28407C106.446 4.77271 105.944 4.4318 105.275 4.09089C104.773 3.74998 104.103 3.57952 103.601 3.57952C102.932 3.57952 102.262 3.74998 101.76 4.09089C101.258 4.4318 100.756 4.94316 100.421 5.45452C100.086 6.13634 99.9189 6.81816 99.9189 7.49998C99.9189 8.1818 100.086 8.86361 100.421 9.54543C100.756 10.2273 101.258 10.5682 101.76 11.0795C102.262 11.4204 102.932 11.5909 103.601 11.5909C104.103 11.5909 104.773 11.4204 105.275 11.25C105.777 10.9091 106.279 10.5682 106.781 10.0568L108.455 11.9318C107.785 12.6136 107.116 13.125 106.112 13.6363C105.275 13.9773 104.438 14.3182 103.434 14.3182C102.262 14.3182 101.091 13.9773 100.254 13.4659C99.2495 12.9545 98.58 12.1023 97.9105 11.0795C97.4084 10.0568 97.0737 8.86361 97.0737 7.67043C97.0737 6.47725 97.4084 5.28407 97.9105 4.26134C98.4126 3.23861 99.2495 2.5568 100.254 1.87498C101.258 1.36361 102.262 1.02271 103.601 1.02271C104.438 1.02271 105.275 1.19316 106.279 1.53407C107.116 1.87498 107.785 2.38634 108.455 3.06816L106.781 5.28407Z" fill="white"/>
<path d="M122.848 5.28407C122.514 4.77271 122.012 4.4318 121.342 4.09089C120.84 3.74998 120.171 3.57952 119.668 3.57952C118.999 3.57952 118.329 3.74998 117.827 4.09089C117.325 4.4318 116.823 4.94316 116.488 5.45452C116.154 6.13634 115.986 6.81816 115.986 7.49998C115.986 8.1818 116.154 8.86361 116.488 9.54543C116.823 10.2273 117.158 10.7386 117.827 11.0795C118.329 11.4204 118.999 11.5909 119.668 11.5909C120.171 11.5909 120.84 11.4204 121.342 11.25C121.844 10.9091 122.346 10.5682 122.848 10.0568L124.522 11.9318C123.853 12.6136 123.016 13.2954 122.179 13.6363C121.342 13.9773 120.505 14.3182 119.501 14.3182C118.329 14.3182 117.158 13.9773 116.321 13.4659C115.317 12.9545 114.647 12.1023 113.978 11.0795C113.476 10.0568 113.141 8.86361 113.141 7.67043C113.141 6.47725 113.476 5.28407 113.978 4.26134C114.48 3.23861 115.317 2.5568 116.321 1.87498C117.325 1.36361 118.329 1.02271 119.668 1.02271C120.505 1.02271 121.342 1.19316 122.346 1.53407C123.183 1.87498 123.853 2.38634 124.522 3.06816L122.848 5.28407Z" fill="#F85A00"/>
<path d="M126.028 1.19324H128.706V11.4205H133.895V13.9773H126.028V1.19324V1.19324Z" fill="#F85A00"/>
<path d="M138.079 8.86369C138.079 9.71596 138.246 10.5682 138.748 11.0796C139.251 11.591 139.92 11.9319 140.757 11.9319C141.594 11.9319 142.263 11.591 142.598 11.0796C143.1 10.5682 143.267 9.88642 143.267 8.86369V1.19324H145.945V8.69324C145.945 9.88642 145.778 10.7387 145.276 11.591C144.774 12.4432 144.272 12.9546 143.435 13.466C142.598 13.9773 141.594 14.1478 140.589 14.1478C139.418 14.1478 138.581 13.9773 137.744 13.466C136.907 12.9546 136.238 12.4432 135.903 11.591C135.401 10.7387 135.234 9.71596 135.234 8.69324V1.19324H137.912V8.86369H138.079Z" fill="#F85A00"/>
<path d="M154.314 1.19324C155.653 1.19324 156.657 1.53415 157.494 2.04551C158.331 2.55687 158.665 3.40915 158.665 4.43187C158.665 5.11369 158.498 5.79551 158.163 6.13642C157.828 6.64778 157.326 6.98869 156.657 7.15915C157.494 7.3296 157.996 7.67051 158.498 8.35233C158.833 9.03415 159 9.71596 159 10.5682C159 11.591 158.665 12.4432 157.828 13.1251C156.992 13.8069 155.82 14.1478 154.481 14.1478H148.791V1.19324H154.314ZM154.146 6.47733C154.648 6.47733 155.151 6.30687 155.318 6.13642C155.653 5.96596 155.82 5.4546 155.82 5.11369C155.82 4.60233 155.653 4.26142 155.318 4.09096C154.983 3.92051 154.648 3.75006 154.146 3.75006H151.468V6.47733H154.146V6.47733ZM154.146 11.7614C154.816 11.7614 155.318 11.591 155.653 11.4205C155.987 11.0796 156.155 10.7387 156.155 10.2273C156.155 9.71596 155.987 9.37506 155.653 9.2046C155.318 8.86369 154.816 8.86369 154.146 8.86369H151.468V11.9319H154.146V11.7614Z" fill="#F85A00"/>
<path d="M3.84947 10.0568C4.35158 10.0568 4.85368 10.5682 4.85368 11.0795V15H8.87053V6.64773C8.87053 6.13636 8.53579 5.625 7.86632 5.625H0V10.0568H3.84947Z" fill="#F85A00"/>
<path d="M10.3768 4.94318C9.87474 4.94318 9.37263 4.43182 9.37263 3.92045V0H5.35579V8.35227C5.35579 8.86364 5.69053 9.375 6.36 9.375H14.3937V4.94318H10.3768Z" fill="white"/>
</svg>
