<svg width="24" height="24" viewBox="0 0 24 24" fill="none" xmlns="http://www.w3.org/2000/svg">
<path d="M16.945 15.87C17.305 16.23 17.305 16.79 16.945 17.15C16.765 17.33 16.545 17.41 16.305 17.41C16.065 17.41 15.8451 17.33 15.6651 17.15L12.005 13.49L8.34503 17.15C8.16503 17.33 7.94504 17.41 7.70504 17.41C7.46504 17.41 7.24505 17.33 7.06505 17.15C6.70505 16.79 6.70505 16.23 7.06505 15.87L10.725 12.21L7.06505 8.55C6.70505 8.19 6.70505 7.63 7.06505 7.27C7.42505 6.91 7.98503 6.91 8.34503 7.27L12.005 10.93L15.6651 7.27C16.0251 6.91 16.585 6.91 16.945 7.27C17.305 7.63 17.305 8.19 16.945 8.55L13.285 12.21L16.945 15.87Z" fill="white"/>
</svg>
