<svg width="106" height="24" fill="none" xmlns="http://www.w3.org/2000/svg"><path d="M10.693 0C6.23 0 4.925.005 4.67.026c-.916.076-1.486.22-2.106.528a4.267 4.267 0 0 0-1.229.897C.658 2.154.247 3.02.098 4.046c-.072.5-.093.601-.097 3.15-.002.849 0 1.967 0 3.466 0 4.451.005 5.753.026 6.005.074.89.214 1.45.51 2.062a4.501 4.501 0 0 0 2.918 2.38c.44.113.927.175 1.552.205.265.011 2.963.02 5.663.02s5.4-.004 5.657-.017c.724-.034 1.144-.09 1.608-.21a4.474 4.474 0 0 0 2.919-2.385c.29-.597.437-1.178.504-2.021.014-.184.02-3.115.02-6.041 0-2.927-.006-5.853-.02-6.037-.068-.856-.216-1.432-.515-2.041a4.23 4.23 0 0 0-.915-1.251C19.221.656 18.356.246 17.326.098c-.5-.072-.6-.094-3.154-.098h-3.48z" fill="url(#paint0_radial)"/><path d="M10.693 0C6.23 0 4.925.005 4.67.026c-.916.076-1.486.22-2.106.528a4.267 4.267 0 0 0-1.229.897C.658 2.154.247 3.02.098 4.046c-.072.5-.093.601-.097 3.15-.002.849 0 1.967 0 3.466 0 4.451.005 5.753.026 6.005.074.89.214 1.45.51 2.062a4.501 4.501 0 0 0 2.918 2.38c.44.113.927.175 1.552.205.265.011 2.963.02 5.663.02s5.4-.004 5.657-.017c.724-.034 1.144-.09 1.608-.21a4.474 4.474 0 0 0 2.919-2.385c.29-.597.437-1.178.504-2.021.014-.184.02-3.115.02-6.041 0-2.927-.006-5.853-.02-6.037-.068-.856-.216-1.432-.515-2.041a4.23 4.23 0 0 0-.915-1.251C19.221.656 18.356.246 17.326.098c-.5-.072-.6-.094-3.154-.098h-3.48z" fill="url(#paint1_radial)"/><path d="M10.688 2.79c-2.143 0-2.412.01-3.254.048-.84.038-1.413.17-1.915.366-.52.2-.96.47-1.398.908a3.866 3.866 0 0 0-.91 1.395c-.197.501-.33 1.074-.368 1.912-.037.84-.047 1.11-.047 3.249 0 2.139.01 2.407.048 3.247.038.839.171 1.411.366 1.912.202.518.472.958.91 1.395.439.439.88.708 1.398.91.502.194 1.076.327 1.916.366.842.038 1.11.047 3.254.047 2.143 0 2.411-.01 3.253-.047.84-.039 1.414-.172 1.916-.366a3.862 3.862 0 0 0 1.398-.91c.439-.438.708-.877.91-1.395.194-.501.328-1.074.367-1.912.038-.84.048-1.108.048-3.247 0-2.14-.01-2.408-.048-3.249-.04-.838-.173-1.41-.367-1.912a3.866 3.866 0 0 0-.91-1.395 3.858 3.858 0 0 0-1.398-.908c-.503-.195-1.077-.328-1.917-.366-.842-.039-1.11-.048-3.254-.048h.002zm-.707 1.42h.707c2.108 0 2.357.007 3.19.045.769.035 1.187.163 1.465.271.368.143.63.314.907.59.276.275.447.538.59.905.108.278.237.694.272 1.463.038.83.046 1.08.046 3.182s-.008 2.352-.046 3.182c-.035.768-.164 1.185-.272 1.462-.143.368-.314.63-.59.905a2.442 2.442 0 0 1-.907.59c-.278.108-.696.236-1.465.27-.832.039-1.082.047-3.19.047-2.107 0-2.357-.008-3.188-.046-.77-.036-1.188-.164-1.466-.272a2.444 2.444 0 0 1-.907-.589 2.44 2.44 0 0 1-.591-.905c-.108-.278-.237-.695-.272-1.463-.038-.83-.045-1.08-.045-3.183 0-2.104.007-2.352.045-3.182.035-.768.164-1.185.272-1.463a2.44 2.44 0 0 1 .59-.906 2.45 2.45 0 0 1 .908-.59c.278-.108.696-.236 1.466-.271.728-.033 1.01-.043 2.48-.044v.002zm4.92 1.308A.946.946 0 1 0 14.9 7.41a.946.946 0 0 0 .002-1.893zm-4.213 1.104a4.05 4.05 0 0 0-4.052 4.046 4.049 4.049 0 0 0 4.052 4.044 4.048 4.048 0 0 0 4.053-4.044 4.049 4.049 0 0 0-4.053-4.046zm0 1.42a2.628 2.628 0 0 1 2.631 2.626 2.628 2.628 0 0 1-2.63 2.625 2.628 2.628 0 0 1-2.631-2.625 2.628 2.628 0 0 1 2.63-2.626z" fill="#fff"/><path fill-rule="evenodd" clip-rule="evenodd" d="M31.217 4.017l.196-.226.207.114.012.18c.01.122.018.243.018.364-.006 1.814-.014 3.628-.022 5.443l-.019 4.666c-.005 1.299-.021 2.594-.488 3.84-.03.08-.017.176-.005.271.006.045.012.09.013.132.05-.003.1-.003.152-.003.109.001.217.002.31-.035.767-.31 1.246-.907 1.592-1.607.41-.83.526-1.725.527-2.632.002-1.568.002-3.137.002-4.705 0-2.055 0-4.11.005-6.164.001-.373-.168-.585-.49-.74-.809-.392-1.563-.309-2.313.173-1.77 1.139-2.854 2.715-3.249 4.724-.28 1.424.606 2.918 1.957 3.349.102.032.22.021.337.01.055-.005.11-.01.163-.011-.01-.051-.016-.103-.023-.154-.016-.113-.031-.225-.07-.328-.063-.159-.14-.315-.216-.471-.143-.291-.285-.581-.329-.885-.254-1.767.166-3.388 1.313-4.81.136-.169.278-.332.42-.495zm41.439 14.037l.121.04c-.037.377-.07.754-.104 1.131-.08.905-.16 1.81-.295 2.708-.094.624-.473 1.148-1.203 1.29-.96.188-1.657-.48-1.468-1.406l.004-.02c.014-.071.029-.143.054-.21.549-1.476 1.628-2.552 2.793-3.564l.098.031zm-12.876-5.21c-.03-.005-.06-.01-.09-.013.05-.269.096-.54.14-.81.103-.614.205-1.229.375-1.825.257-.9.883-1.364 1.522-1.304.606.056 1.116.634 1.271 1.507.242 1.36.157 2.71-.318 4.014-.153.42-.414.83-.72 1.163-.514.558-1.216.514-1.594-.136-.265-.456-.39-.999-.51-1.521a28.257 28.257 0 0 1-.018-.078c-.05-.218-.038-.45-.025-.68.005-.105.011-.209.011-.311a5.338 5.338 0 0 1-.044-.007zm25.642.15h-.008c.034-.23.065-.462.096-.693.073-.55.146-1.102.275-1.64.104-.43.331-.867.618-1.213.565-.683 1.474-.624 1.911.14.253.44.39.97.456 1.475a7.158 7.158 0 0 1-.407 3.494c-.132.35-.327.695-.567.986-.615.748-1.455.68-1.86-.196-.187-.408-.27-.862-.351-1.315-.028-.155-.056-.31-.088-.463a1.502 1.502 0 0 1-.013-.387c.004-.06.007-.12.007-.18l-.07-.008zm-12.99-1.928c.043.221.086.442.136.66a58.26 58.26 0 0 0-.152.818c-.116.637-.228 1.257-.393 1.863-.11.412-.368.815-.652 1.147-.597.696-1.398.623-1.814-.188-.24-.467-.363-1.011-.433-1.534-.155-1.14-.062-2.278.349-3.359a3.36 3.36 0 0 1 .792-1.222c.64-.606 1.458-.461 1.785.343.19.468.286.97.383 1.472zm-9.287-2.904a2.415 2.415 0 0 1-.153.208c-.095-.067-.195-.147-.299-.23-.245-.198-.516-.416-.826-.55-1.127-.489-2.367.02-3.104 1.22-.677 1.102-.962 2.319-.962 3.584 0 .86-.278 1.617-.71 2.33a2.768 2.768 0 0 1-.741.803c-.42.299-.86.18-1.035-.294-.172-.468-.313-.979-.311-1.471.003-1.364.034-2.728.065-4.092.016-.707.032-1.414.044-2.121.005-.285.117-.383.41-.384a26.64 26.64 0 0 0 2.06-.07c.186-.015.438-.164.518-.32.302-.583.12-.839-.552-.873a404.43 404.43 0 0 1-1.7-.09c-.208-.01-.416-.022-.623-.033 0-.187-.002-.368-.003-.543-.004-.376-.008-.73.008-1.084.049-1.12.001-1.189-1.16-1.39a3.57 3.57 0 0 0-.292-.04c-.535-.048-.687.075-.71.583l-.024.462c-.025.494-.05.989-.05 1.483 0 .343-.142.443-.47.422a12.246 12.246 0 0 0-.65-.02c-.143 0-.286-.002-.43-.007-.76-.025-1.053.265-1.03 1 .01.293.126.431.444.427.23-.004.459 0 .688.004.295.006.59.01.883 0 .353-.014.447.12.442.442-.008.546-.007 1.092-.007 1.637 0 .831.001 1.662-.027 2.492-.04 1.203-.685 2.124-1.639 2.899.128-.987-.244-1.763-.965-2.392-.424-.37-.871-.717-1.318-1.063-.23-.178-.468-.346-.713-.518-.104-.074-.21-.148-.315-.224.055-.075.11-.143.163-.21.112-.139.213-.265.283-.407.04-.083.083-.165.126-.249.182-.355.367-.715.445-1.092.128-.62-.233-.988-.88-.956-.834.04-1.514.39-1.93 1.12-.397.696-.404 1.395.08 2.057.149.205.195.357.05.59-.256.41-.505.825-.754 1.24-.317.53-.634 1.058-.965 1.579-.238.373-.536.72-.852 1.037-.307.307-.62.225-.711-.194a5.516 5.516 0 0 1-.114-1.27c.029-1.455.076-2.91.14-4.364.024-.538-.197-.904-.662-1.173-1.137-.658-2.018-.563-2.76.511-.46.667-.822 1.399-1.185 2.13-.132.267-.265.534-.402.798-.1.193-.175.398-.25.604-.035.095-.07.19-.108.285a.615.615 0 0 1-.113-.381c.002-.82.006-1.638.01-2.457l.003-.819c.003-.736-.066-.825-.796-1.005-.1-.025-.202-.042-.304-.059l-.13-.022c-.398-.073-.571.073-.572.478 0 1.111-.005 2.223-.01 3.334a622.295 622.295 0 0 0-.01 4.167c.002 1.118.277 1.372 1.392 1.419.319.014.498-.07.57-.423.19-.945.398-1.89.67-2.816.443-1.512 1.064-2.956 2.077-4.211.085-.105.187-.197.312-.31.066-.06.138-.125.218-.201.01.093.02.168.029.231.014.109.024.184.021.259-.014.41-.032.818-.05 1.228-.038.855-.077 1.711-.076 2.567 0 .864.023 1.747.205 2.588.238 1.098 1.076 1.383 2.087.822.774-.43 1.316-1.084 1.776-1.804.404-.633.803-1.269 1.203-1.904l.688-1.094c.053-.084.11-.166.192-.28l.152-.217c.185.19.367.373.545.551.403.405.787.791 1.147 1.198.431.486.534 1.072.347 1.694-.213.71-.773.99-1.477.693a2.823 2.823 0 0 1-.48-.284c-.127-.086-.254-.172-.39-.24-.155-.079-.457-.158-.518-.091l-.085.095c-.268.295-.557.613-.631.963-.04.189.405.583.71.711.922.389 1.917.42 2.891.23 1.58-.308 2.514-1.39 3.244-2.68.083-.146.158-.295.234-.444l.11-.215a.825.825 0 0 1 .189.46c.116.773.31 1.523.805 2.162.731.943 1.955 1.08 2.814.25.307-.297.544-.663.78-1.028.094-.146.188-.292.287-.434.057-.08.1-.171.156-.285.03-.06.062-.128.102-.205.44 1.274.92 2.46 2.456 2.534 1.416.068 2.357-.742 3.051-1.973.287 1.066.778 1.82 1.876 1.965 1.129.149 1.655-.63 2.187-1.418l.053-.08c.61.867 1.24 1.615 2.414 1.526 1.088-.082 1.877-.657 2.517-1.526.19.553.2.949-.278 1.326-.72.57-1.423 1.178-2.04 1.849-.613.666-1.218 1.379-1.635 2.165-.557 1.052-.059 2.237.983 2.747 1.16.567 2.621.339 3.54-.556a3.6 3.6 0 0 0 1.093-2.285c.08-.868.11-1.74.142-2.613.02-.548.04-1.097.072-1.644.013-.248.095-.535.25-.724 1.419-1.736 2.653-3.569 3.406-5.677.044-.127.19-.304.3-.312.335-.025.673-.022 1.034-.017.138.001.28.003.425.003a10.41 10.41 0 0 1-.049.226c-.029.13-.053.239-.064.348-.034.323-.072.645-.11.968-.096.823-.193 1.646-.217 2.472-.028.937.321 1.804 1 2.508 1.042 1.079 2.497.944 3.316-.298.078-.119.157-.237.257-.385l.045-.066c.598 1.045 1.368 1.64 2.617 1.445 1.163-.182 1.879-.91 2.492-1.92.266 1.043.712 1.792 1.776 1.941 1.094.153 1.688-.561 2.302-1.423l.028.308c.016.18.029.32.039.461.028.394.31.544.653.594.08.012.16.026.242.041.431.08.87.16 1.238-.207.063-.064.069-.19.073-.301l.004-.06c.012-.194.02-.388.028-.582.012-.28.024-.56.048-.84.14-1.632.444-3.228 1.217-4.707.056-.108.132-.205.232-.333.053-.069.114-.146.181-.239.016.101.03.181.042.248.02.111.032.185.038.26.03.395.056.79.082 1.187.06.914.12 1.829.233 2.737.071.577.283 1.167.564 1.683.25.46.839.546 1.35.385.388-.122.377-.398.368-.664-.003-.073-.006-.146 0-.214.15-1.778.526-3.5 1.267-5.141.044-.098.102-.19.159-.282.028-.043.055-.087.081-.132.109.207.11.374.111.54v.007c.001.282 0 .564-.002.847-.003.65-.007 1.302.025 1.952.049.98.175 1.957.679 2.84.389.686.988 1.037 1.802 1.023.813-.015 1.394-.428 1.669-1.122.195-.494.281-1.032.365-1.564l.044-.271c.017-.099-.049-.21-.114-.32-.03-.05-.06-.101-.082-.15-.04.041-.087.081-.133.12-.101.087-.201.173-.245.28-.077.187-.137.381-.197.575-.086.275-.171.55-.303.803-.112.214-.443.452-.665.444-.221-.008-.545-.272-.624-.49-.189-.532-.352-1.099-.367-1.656-.043-1.564-.02-3.13.009-4.695.008-.47-.173-.797-.574-1.015a3.975 3.975 0 0 0-.762-.32c-.754-.225-1.126-.089-1.371.64a92.051 92.051 0 0 0-.919 2.956c-.13.436-.26.872-.392 1.307-.021.068-.047.135-.073.202-.012.032-.025.063-.036.095a.427.427 0 0 1-.126-.298l-.015-.296c-.055-1.134-.11-2.267-.162-3.4-.031-.675-.457-1.097-1.29-1.268-.659-.134-.897-.019-1.214.713a38.67 38.67 0 0 0-.656 1.655l-.265.694c-.062.158-.121.317-.181.476l-.073.194-.095-.017-.029-.005v-.637V8.82c.002-.94-.05-1-1.011-1.125l-.094-.01a2.026 2.026 0 0 1-.101-.011c-.603-.087-.678-.026-.68.575v.025c-.007 1.796-.014 3.591-.018 5.387-.001.847-.416 1.52-.994 2.098-.412.414-.963.304-1.185-.228-.15-.36-.273-.76-.278-1.143-.023-1.866-.008-3.732.01-5.598.003-.328-.028-.646-.387-.728a5.024 5.024 0 0 0-1.364-.132c-.072.004-.135.185-.2.377a3.424 3.424 0 0 1-.1.265l-.066-.076c-.055-.061-.106-.12-.156-.178-.718-.837-1.845-1.067-2.833-.564-.867.44-1.322 1.204-1.645 2.052-.55 1.444-.65 2.935-.374 4.44.09.495-.044.899-.353 1.22-.235.245-.62.517-.915.495-.253-.02-.569-.402-.69-.689a4.94 4.94 0 0 1-.322-2.75c.15-.919.343-1.832.543-2.743.21-.95-.226-1.451-1.222-1.347-.194.02-.386.06-.577.1-.113.024-.225.047-.338.067-.294.05-.589.098-.897.148l-.362.058.02-.2c.01-.107.019-.188.022-.27.023-.729-.378-1.09-1.13-1.015-.501.05-.859.311-1.047.754-.222.52-.295 1.07.139 1.516.284.293.267.558.167.897-.435 1.46-1.175 2.774-2.044 4.028a.93.93 0 0 0-.075.141l-.032.068-.162-.069v-.15-.335l.016-1.388c.015-1.389.03-2.777.06-4.166.009-.4-.132-.633-.527-.73l-.163-.041a5.775 5.775 0 0 0-.311-.076c-.76-.155-.852-.094-.955.62-.002.012-.022.021-.048.033a.623.623 0 0 0-.047.024l-.092-.103a8.327 8.327 0 0 0-.188-.208c-.802-.85-2.013-.96-2.953-.268-.7.515-1.162 1.195-1.46 1.984-.492 1.304-.596 2.659-.422 4.022.085.674-.12 1.215-.534 1.707-.52.618-1.148.52-1.397-.234a4.284 4.284 0 0 1-.235-1.302c-.005-1.091.008-2.183.021-3.274.009-.696.017-1.392.02-2.088.002-.177-.034-.472-.136-.512-.456-.177-.937-.348-1.418-.374-.121-.007-.254.186-.378.365z" fill="#FFFFFE"/><defs><radialGradient id="paint0_radial" cx="0" cy="0" r="1" gradientUnits="userSpaceOnUse" gradientTransform="matrix(0 -21.1429 19.7059 0 5.679 22.977)"><stop stop-color="#FD5"/><stop offset=".1" stop-color="#FD5"/><stop offset=".5" stop-color="#FF543E"/><stop offset="1" stop-color="#C837AB"/></radialGradient><radialGradient id="paint1_radial" cx="0" cy="0" r="1" gradientUnits="userSpaceOnUse" gradientTransform="matrix(1.8589 9.26714 -38.27359 7.67735 -3.581 1.537)"><stop stop-color="#3771C8"/><stop offset=".128" stop-color="#3771C8"/><stop offset="1" stop-color="#60F" stop-opacity="0"/></radialGradient></defs></svg>