<svg xmlns="http://www.w3.org/2000/svg" width="22" height="23" viewBox="0.25 0 22 23"><path fill="#828E95" fill-rule="evenodd" d="M2.149 11.217h-.006c0 1.753-.004 3.506.003 5.26.001.3.017.608.078.901.336 1.629 1.812 2.867 3.619 2.856 3.535-.021 7.07-.003 10.605-.008.287 0 .58-.018.859-.08 1.712-.383 2.846-1.78 2.851-3.552.012-3.59.009-7.182-.006-10.774a3.917 3.917 0 0 0-.191-1.178c-.452-1.387-1.808-2.451-3.51-2.441-3.529.02-7.057.004-10.585.007-.238 0-.478.019-.714.052-1.611.222-2.974 1.715-2.997 3.338-.026 1.872-.006 3.746-.006 5.619zM.333 17.049V5.386c.027-.151.052-.303.08-.454.375-1.986 1.5-3.376 3.362-4.142C4.26.59 4.803.526 5.32.399h11.663c.405.085.822.134 1.213.262 2.278.743 3.765 2.782 3.771 5.182.01 3.585.005 7.17.001 10.753-.001 1.152-.32 2.213-1.002 3.145-1.126 1.54-2.658 2.294-4.563 2.294-3.48.001-6.958.003-10.436-.003-.365 0-.736-.017-1.093-.081-2-.364-3.394-1.5-4.157-3.377-.195-.48-.26-1.015-.384-1.525zm10.836-2.232a3.589 3.589 0 0 0 3.582-3.612 3.591 3.591 0 0 0-3.627-3.587 3.589 3.589 0 0 0-3.572 3.622 3.59 3.59 0 0 0 3.617 3.577zm5.391-3.603c.003 2.981-2.437 5.42-5.416 5.412a5.42 5.42 0 0 1-5.4-5.406c-.004-2.983 2.434-5.419 5.415-5.411a5.419 5.419 0 0 1 5.401 5.405zm.45-4.511a1.338 1.338 0 0 1-1.343-1.359 1.35 1.35 0 0 1 1.348-1.338 1.36 1.36 0 0 1 1.35 1.343 1.353 1.353 0 0 1-1.356 1.354z"/></svg>