<svg width="439" height="56" viewBox="0 0 439 56" fill="none" xmlns="http://www.w3.org/2000/svg">
<path d="M117.001 41.2597H95.2555L91.1071 51.2044H80L100.876 4.79558H111.582L132.524 51.2044H121.15L117.001 41.2597ZM113.589 33.105L106.162 15.337L98.7348 33.105H113.589Z" fill="white"/>
<path d="M157.213 52C150.522 52 145.303 50.1657 141.556 46.4972C137.853 42.8287 136.002 37.5912 136.002 30.7845V4.79558H146.842V30.3867C146.842 38.6961 150.321 42.8508 157.28 42.8508C160.67 42.8508 163.257 41.8564 165.041 39.8674C166.825 37.8343 167.717 34.674 167.717 30.3867V4.79558H178.423V30.7845C178.423 37.5912 176.55 42.8287 172.803 46.4972C169.1 50.1657 163.904 52 157.213 52Z" fill="white"/>
<path d="M198.052 13.547H183.064V4.79558H223.88V13.547H208.892V51.2044H198.052V13.547Z" fill="white"/>
<path d="M251.741 52C246.879 52 242.485 50.9613 238.56 48.884C234.679 46.8066 231.623 43.9558 229.393 40.3315C227.207 36.663 226.114 32.5525 226.114 28C226.114 23.4475 227.207 19.3591 229.393 15.7348C231.623 12.0663 234.679 9.19337 238.56 7.11602C242.485 5.03867 246.879 4 251.741 4C256.603 4 260.974 5.03867 264.855 7.11602C268.736 9.19337 271.791 12.0663 274.022 15.7348C276.252 19.3591 277.367 23.4475 277.367 28C277.367 32.5525 276.252 36.663 274.022 40.3315C271.791 43.9558 268.736 46.8066 264.855 48.884C260.974 50.9613 256.603 52 251.741 52ZM251.741 42.8508C254.506 42.8508 257.004 42.232 259.235 40.9945C261.465 39.7127 263.205 37.9448 264.454 35.6906C265.747 33.4365 266.394 30.8729 266.394 28C266.394 25.1271 265.747 22.5635 264.454 20.3094C263.205 18.0552 261.465 16.3094 259.235 15.0718C257.004 13.7901 254.506 13.1492 251.741 13.1492C248.975 13.1492 246.477 13.7901 244.247 15.0718C242.017 16.3094 240.255 18.0552 238.961 20.3094C237.712 22.5635 237.087 25.1271 237.087 28C237.087 30.8729 237.712 33.4365 238.961 35.6906C240.255 37.9448 242.017 39.7127 244.247 40.9945C246.477 42.232 248.975 42.8508 251.741 42.8508Z" fill="white"/>
<path d="M285.514 4.79558H306.791C311.876 4.79558 316.359 5.76795 320.24 7.71271C324.165 9.61326 327.199 12.3094 329.34 15.8011C331.525 19.2928 332.618 23.3591 332.618 28C332.618 32.6409 331.525 36.7072 329.34 40.1989C327.199 43.6906 324.165 46.4088 320.24 48.3536C316.359 50.2541 311.876 51.2044 306.791 51.2044H285.514V4.79558ZM306.256 42.3867C310.939 42.3867 314.664 41.105 317.43 38.5414C320.24 35.9337 321.645 32.4199 321.645 28C321.645 23.5801 320.24 20.0884 317.43 17.5249C314.664 14.9171 310.939 13.6133 306.256 13.6133H296.353V42.3867H306.256Z" fill="white"/>
<path d="M363.475 52C358.613 52 354.219 50.9613 350.294 48.884C346.413 46.8066 343.358 43.9558 341.127 40.3315C338.942 36.663 337.849 32.5525 337.849 28C337.849 23.4475 338.942 19.3591 341.127 15.7348C343.358 12.0663 346.413 9.19337 350.294 7.11602C354.219 5.03867 358.613 4 363.475 4C368.337 4 372.709 5.03867 376.59 7.11602C380.47 9.19337 383.526 12.0663 385.756 15.7348C387.987 19.3591 389.102 23.4475 389.102 28C389.102 32.5525 387.987 36.663 385.756 40.3315C383.526 43.9558 380.47 46.8066 376.59 48.884C372.709 50.9613 368.337 52 363.475 52ZM363.475 42.8508C366.241 42.8508 368.739 42.232 370.969 40.9945C373.2 39.7127 374.939 37.9448 376.188 35.6906C377.482 33.4365 378.129 30.8729 378.129 28C378.129 25.1271 377.482 22.5635 376.188 20.3094C374.939 18.0552 373.2 16.3094 370.969 15.0718C368.739 13.7901 366.241 13.1492 363.475 13.1492C360.71 13.1492 358.212 13.7901 355.981 15.0718C353.751 16.3094 351.989 18.0552 350.695 20.3094C349.446 22.5635 348.822 25.1271 348.822 28C348.822 30.8729 349.446 33.4365 350.695 35.6906C351.989 37.9448 353.751 39.7127 355.981 40.9945C358.212 42.232 360.71 42.8508 363.475 42.8508Z" fill="white"/>
<path d="M419.663 52C414.89 52 410.563 50.9834 406.682 48.9503C402.846 46.8729 399.813 44.0221 397.583 40.3978C395.397 36.7293 394.304 32.5967 394.304 28C394.304 23.4033 395.397 19.2928 397.583 15.6685C399.813 12 402.846 9.14917 406.682 7.11602C410.563 5.03867 414.912 4 419.73 4C423.789 4 427.447 4.70718 430.703 6.12155C434.004 7.53591 436.77 9.56906 439 12.221L432.041 18.5856C428.874 14.9613 424.949 13.1492 420.265 13.1492C417.366 13.1492 414.779 13.7901 412.504 15.0718C410.229 16.3094 408.444 18.0552 407.151 20.3094C405.902 22.5635 405.277 25.1271 405.277 28C405.277 30.8729 405.902 33.4365 407.151 35.6906C408.444 37.9448 410.229 39.7127 412.504 40.9945C414.779 42.232 417.366 42.8508 420.265 42.8508C424.949 42.8508 428.874 41.0166 432.041 37.3481L439 43.7127C436.77 46.4088 434.004 48.4641 430.703 49.8785C427.402 51.2928 423.722 52 419.663 52Z" fill="white"/>
<path fill-rule="evenodd" clip-rule="evenodd" d="M14.4868 37.6007C17.0238 37.6007 19.0804 39.6573 19.0804 42.1943L19.0804 56L35.1939 56L35.1939 37.6007L35.194 25.7348C35.1941 23.1979 33.1375 21.1412 30.6005 21.1412L8.3689e-05 21.1412L8.22868e-05 37.6007L14.4868 37.6007Z" fill="#F85A00"/>
<path fill-rule="evenodd" clip-rule="evenodd" d="M41.5134 18.3993C38.9765 18.3993 36.9198 16.3427 36.9198 13.8057V0L20.8063 0L20.8063 18.3993L20.8062 30.2652C20.8062 32.8021 22.8628 34.8588 25.3998 34.8588L56.0002 34.8588L56.0002 18.3993L41.5134 18.3993Z" fill="white"/>
</svg>
