<svg width="24" height="24" viewBox="0 0 24 24" fill="none" xmlns="http://www.w3.org/2000/svg">
<path fill-rule="evenodd" clip-rule="evenodd" d="M20.3574 16.6636C20.3594 16.4416 20.2414 16.2356 20.0484 16.1256L18.0434 14.9196L20.2084 14.0386C20.3604 13.9766 20.4784 13.8606 20.5424 13.7096C20.6054 13.5596 20.6064 13.3926 20.5444 13.2416V13.2406C20.4834 13.0896 20.3664 12.9706 20.2154 12.9066C20.0664 12.8426 19.8984 12.8416 19.7464 12.9036L16.7294 14.1316L16.6864 14.1056L12.9784 11.8776L16.7294 9.6236L16.7764 9.6426L19.7474 10.8506C20.0514 10.9696 20.4094 10.8176 20.5344 10.5096C20.6594 10.2016 20.5124 9.8456 20.2074 9.7146L18.0434 8.8346L20.0454 7.6306C20.2414 7.5196 20.3594 7.3136 20.3574 7.0916C20.3554 6.8696 20.2334 6.6656 20.0384 6.5596C19.8434 6.4556 19.6054 6.4596 19.4184 6.5796L17.4114 7.7846L17.6504 5.4586C17.6784 5.1286 17.4324 4.8316 17.1014 4.7976C16.7754 4.7626 16.4694 5.0046 16.4314 5.3346L16.0994 8.5736L12.4024 10.7946V6.4826L12.4424 6.4526L15.0084 4.5276C15.1834 4.3966 15.2754 4.1816 15.2484 3.9646C15.2224 3.7476 15.0824 3.5596 14.8814 3.4746C14.6804 3.3886 14.4484 3.4156 14.2724 3.5476L12.4024 4.9506V2.6126C12.4024 2.2746 12.1274 1.9996 11.7894 1.9996C11.4514 1.9996 11.1774 2.2746 11.1774 2.6126V4.9506L9.30639 3.5476C9.17539 3.4496 9.01539 3.4096 8.85239 3.4316C8.69039 3.4546 8.54639 3.5396 8.44839 3.6706C8.35039 3.8016 8.30939 3.9626 8.33239 4.1246C8.35539 4.2866 8.44039 4.4296 8.57139 4.5276L11.1774 6.4826V10.7946L7.48039 8.5736L7.47539 8.5236L7.14739 5.3336C7.11239 4.9976 6.81139 4.7486 6.47539 4.7866C6.13939 4.8216 5.89439 5.1226 5.92839 5.4586L6.16839 7.7846L4.16339 6.5806C3.97339 6.4606 3.73639 6.4546 3.54139 6.5596C3.34639 6.6656 3.22439 6.8696 3.22139 7.0916C3.21939 7.3126 3.33739 7.5196 3.53039 7.6296L5.53739 8.8356L3.37139 9.7166C3.06639 9.8456 2.91939 10.2026 3.04539 10.5106C3.17039 10.8186 3.52639 10.9716 3.83439 10.8506L6.84939 9.6236L10.6004 11.8776L6.85039 14.1316L6.80339 14.1126L3.83239 12.9046C3.52339 12.7836 3.17039 12.9366 3.04539 13.2456C2.92039 13.5536 3.06639 13.9106 3.37339 14.0406L5.53739 14.9196L3.53339 16.1246C3.33839 16.2346 3.21939 16.4406 3.22239 16.6636C3.22439 16.8856 3.34639 17.0896 3.54139 17.1956C3.73739 17.3026 3.97539 17.2956 4.16239 17.1756L6.16839 15.9706L5.92839 18.2966C5.91239 18.4576 5.96139 18.6206 6.06339 18.7456C6.16639 18.8726 6.31239 18.9516 6.47539 18.9686C6.49739 18.9716 6.51839 18.9726 6.53939 18.9726C6.85439 18.9726 7.11539 18.7356 7.14739 18.4226L7.48039 15.1826L7.52339 15.1556L11.1774 12.9606V17.2726L11.1374 17.3036L8.57139 19.2266C8.30139 19.4296 8.24639 19.8146 8.44839 20.0856C8.65139 20.3546 9.03639 20.4116 9.30639 20.2076L11.1774 18.8046V21.1426C11.1774 21.4796 11.4514 21.7556 11.7894 21.7556C12.1274 21.7556 12.4024 21.4796 12.4024 21.1426V18.8046L14.2724 20.2076C14.4474 20.3376 14.6804 20.3656 14.8814 20.2806C15.0824 20.1946 15.2224 20.0076 15.2484 19.7906C15.2754 19.5736 15.1834 19.3576 15.0084 19.2266L12.4024 17.2726V12.9606L16.0994 15.1816L16.1044 15.2306L16.4314 18.4216C16.4674 18.7286 16.7344 18.9596 17.0404 18.9596C17.0614 18.9596 17.0824 18.9586 17.1024 18.9566C17.4334 18.9226 17.6794 18.6256 17.6504 18.2946L17.4114 15.9706L19.4164 17.1736C19.6054 17.2956 19.8424 17.3016 20.0384 17.1946C20.2334 17.0896 20.3554 16.8856 20.3574 16.6636Z" fill="#8E979C"/>
</svg>
