<svg width="25" height="24" viewBox="0 0 25 24" fill="none" xmlns="http://www.w3.org/2000/svg">
<path opacity="0.01" fill-rule="evenodd" clip-rule="evenodd" d="M0 0H11V24H0L0 0Z" fill="#E7E9EA"/>
<mask id="mask0" mask-type="alpha" maskUnits="userSpaceOnUse" x="0" y="0" width="11" height="24">
<path fill-rule="evenodd" clip-rule="evenodd" d="M0 0H11V24H0L0 0Z" fill="white"/>
</mask>
<g mask="url(#mask0)">
<path fill-rule="evenodd" clip-rule="evenodd" d="M13 4.92859C13.4339 4.92859 13.7857 4.57681 13.7857 4.14285V1.78574C13.7857 1.35178 13.4339 1 13 1C12.566 1 12.2142 1.35178 12.2142 1.78574V4.14291C12.2143 4.57681 12.5661 4.92859 13 4.92859ZM7.49996 12C7.49996 8.96243 9.96243 6.50001 13 6.50001C16.0361 6.50338 18.4966 8.96386 18.5 12C18.5 15.0376 16.0376 17.5 13 17.5C9.96237 17.5 7.49996 15.0376 7.49996 12ZM9.07138 12C9.07138 14.1697 10.8303 15.9286 13 15.9286C15.1686 15.926 16.926 14.1686 16.9286 12C16.9286 9.83029 15.1697 8.07138 13 8.07138C10.8303 8.07138 9.07138 9.83029 9.07138 12ZM7.99948 6.98017C7.69801 7.29227 7.2006 7.30095 6.88845 6.99948L5.22189 5.33285C4.92778 5.02841 4.92778 4.54568 5.22189 4.24119C5.52336 3.9291 6.02076 3.92042 6.33291 4.22189L7.99948 5.88851C8.29358 6.19295 8.29358 6.67568 7.99948 6.98017ZM5.92859 12C5.92859 11.566 5.57681 11.2142 5.14285 11.2142H2.78574C2.35178 11.2143 2 11.5661 2 12C2 12.4339 2.35178 12.7857 2.78574 12.7857H5.14291C5.57681 12.7857 5.92859 12.4339 5.92859 12ZM5.22189 18.6671L6.88845 17.0005C7.19295 16.7065 7.67568 16.7065 7.98012 17.0005C8.29221 17.302 8.30089 17.7994 7.99942 18.1115L6.33285 19.7781C6.02841 20.0722 5.54568 20.0722 5.24119 19.7781C4.9291 19.4766 4.92042 18.9792 5.22189 18.6671ZM13 19.0714C12.566 19.0714 12.2142 19.4232 12.2142 19.8572V22.2143C12.2142 22.6483 12.566 23.0001 13 23.0001C13.4339 23.0001 13.7857 22.6483 13.7857 22.2143V19.8572C13.7857 19.4232 13.4339 19.0714 13 19.0714ZM18.0005 17.0199C18.3019 16.7077 18.7993 16.6991 19.1115 17.0005L20.7781 18.6671C21.0721 18.9716 21.0721 19.4543 20.7781 19.7588C20.4766 20.0709 19.9792 20.0796 19.667 19.7781L18.0005 18.1115C17.7064 17.8071 17.7064 17.3244 18.0005 17.0199ZM23.2143 11.2143H20.8571C20.4231 11.2143 20.0714 11.5661 20.0714 12C20.0714 12.434 20.4231 12.7858 20.8571 12.7858H23.2143C23.6482 12.7858 24 12.434 24 12C24 11.5661 23.6482 11.2143 23.2143 11.2143ZM20.7781 5.33291L19.1115 6.99948C18.8071 7.29358 18.3243 7.29358 18.0198 6.99948C17.7077 6.69801 17.699 6.2006 18.0005 5.88845L19.667 4.22189C19.6734 4.21538 19.6798 4.20892 19.6863 4.20258C19.9985 3.90111 20.4959 3.90974 20.7974 4.22189C21.0988 4.53403 21.0902 5.03144 20.7781 5.33291Z" fill="#8E979C"/>
</g>
<path opacity="0.01" fill-rule="evenodd" clip-rule="evenodd" d="M25 0V24H13L13 0.000113271L25 0Z" fill="#E7E9EA"/>
<mask id="mask1" mask-type="alpha" maskUnits="userSpaceOnUse" x="13" y="0" width="12" height="24">
<path fill-rule="evenodd" clip-rule="evenodd" d="M25 0V24H13L13 0.000113271L25 0Z" fill="white"/>
</mask>
<g mask="url(#mask1)">
<path fill-rule="evenodd" clip-rule="evenodd" d="M21.3571 16.464C21.3591 16.242 21.2411 16.036 21.0481 15.926L19.0431 14.72L21.2081 13.839C21.3601 13.777 21.4781 13.661 21.5421 13.51C21.6051 13.36 21.6061 13.193 21.5441 13.042V13.041C21.4831 12.89 21.3661 12.771 21.2151 12.707C21.0661 12.643 20.8981 12.642 20.7461 12.704L17.7291 13.932L17.6861 13.906L13.9781 11.678L17.7291 9.424L17.7761 9.443L20.7471 10.651C21.0511 10.77 21.4091 10.618 21.5341 10.31C21.6591 10.002 21.5121 9.646 21.2071 9.515L19.0431 8.635L21.0451 7.431C21.2411 7.32 21.3591 7.114 21.3571 6.892C21.3551 6.67 21.2331 6.466 21.0381 6.36C20.8431 6.256 20.6051 6.26 20.4181 6.38L18.4111 7.585L18.6501 5.259C18.6781 4.929 18.4321 4.632 18.1011 4.598C17.7751 4.563 17.4691 4.805 17.4311 5.135L17.0991 8.374L13.4021 10.595V6.283L13.4421 6.253L16.0081 4.328C16.1831 4.197 16.2751 3.982 16.2481 3.765C16.2221 3.548 16.0821 3.36 15.8811 3.275C15.6801 3.189 15.4481 3.216 15.2721 3.348L13.4021 4.751V2.413C13.4021 2.075 13.1271 1.8 12.7891 1.8C12.4511 1.8 12.1771 2.075 12.1771 2.413V4.751L10.3061 3.348C10.1751 3.25 10.0151 3.21 9.85214 3.232C9.69014 3.255 9.54614 3.34 9.44814 3.471C9.35014 3.602 9.30914 3.763 9.33214 3.925C9.35514 4.087 9.44014 4.23 9.57114 4.328L12.1771 6.283V10.595L8.48014 8.374L8.47514 8.324L8.14714 5.134C8.11214 4.798 7.81114 4.549 7.47514 4.587C7.13914 4.622 6.89414 4.923 6.92814 5.259L7.16814 7.585L5.16314 6.381C4.97314 6.261 4.73614 6.255 4.54114 6.36C4.34614 6.466 4.22414 6.67 4.22114 6.892C4.21914 7.113 4.33714 7.32 4.53014 7.43L6.53714 8.636L4.37114 9.517C4.06614 9.646 3.91914 10.003 4.04514 10.311C4.17014 10.619 4.52614 10.772 4.83414 10.651L7.84914 9.424L11.6001 11.678L7.85014 13.932L7.80314 13.913L4.83214 12.705C4.52314 12.584 4.17014 12.737 4.04514 13.046C3.92014 13.354 4.06614 13.711 4.37314 13.841L6.53714 14.72L4.53314 15.925C4.33814 16.035 4.21914 16.241 4.22214 16.464C4.22414 16.686 4.34614 16.89 4.54114 16.996C4.73714 17.103 4.97514 17.096 5.16214 16.976L7.16814 15.771L6.92814 18.097C6.91214 18.258 6.96114 18.421 7.06314 18.546C7.16614 18.673 7.31214 18.752 7.47514 18.769C7.49714 18.772 7.51814 18.773 7.53914 18.773C7.85414 18.773 8.11514 18.536 8.14714 18.223L8.48014 14.983L8.52314 14.956L12.1771 12.761V17.073L12.1371 17.104L9.57114 19.027C9.30114 19.23 9.24614 19.615 9.44814 19.886C9.65114 20.155 10.0361 20.212 10.3061 20.008L12.1771 18.605V20.943C12.1771 21.28 12.4511 21.556 12.7891 21.556C13.1271 21.556 13.4021 21.28 13.4021 20.943V18.605L15.2721 20.008C15.4471 20.138 15.6801 20.166 15.8811 20.081C16.0821 19.995 16.2221 19.808 16.2481 19.591C16.2751 19.374 16.1831 19.158 16.0081 19.027L13.4021 17.073V12.761L17.0991 14.982L17.1041 15.031L17.4311 18.222C17.4671 18.529 17.7341 18.76 18.0401 18.76C18.0611 18.76 18.0821 18.759 18.1021 18.757C18.4331 18.723 18.6791 18.426 18.6501 18.095L18.4111 15.771L20.4161 16.974C20.6051 17.096 20.8421 17.102 21.0381 16.995C21.2331 16.89 21.3551 16.686 21.3571 16.464Z" fill="#8E979C"/>
</g>
<rect x="13.7" y="1.6" width="20" height="1.2" rx="0.5" transform="rotate(90 13.7 1.6)" fill="#8E979C"/>
</svg>
