<svg width="24" height="24" viewBox="0 0 24 24" fill="none" xmlns="http://www.w3.org/2000/svg">
<path fill-rule="evenodd" clip-rule="evenodd" d="M12 5.57145C12.3945 5.57145 12.7143 5.25164 12.7143 4.85714V2.71431C12.7143 2.3198 12.3945 2 12 2C11.6055 2 11.2857 2.3198 11.2857 2.71431V4.85719C11.2857 5.25164 11.6055 5.57145 12 5.57145ZM6.99996 12C6.99996 9.23857 9.23857 7.00001 12 7.00001C14.7601 7.00308 16.9969 9.23987 17 12C17 14.7615 14.7614 17 12 17C9.23852 17 6.99996 14.7615 6.99996 12ZM8.42853 12C8.42853 13.9724 10.0275 15.5714 12 15.5714C13.9715 15.5691 15.5691 13.9715 15.5714 12C15.5714 10.0275 13.9724 8.42853 12 8.42853C10.0275 8.42853 8.42853 10.0275 8.42853 12ZM7.45407 7.43652C7.18001 7.72024 6.72782 7.72813 6.44405 7.45407L4.92899 5.93896C4.66162 5.66219 4.66162 5.22335 4.92899 4.94653C5.20305 4.66281 5.65524 4.65492 5.93901 4.92899L7.45407 6.4441C7.72144 6.72086 7.72144 7.15971 7.45407 7.43652ZM5.57145 12C5.57145 11.6055 5.25164 11.2857 4.85714 11.2857H2.71431C2.3198 11.2857 2 11.6055 2 12C2 12.3944 2.3198 12.7143 2.71431 12.7143H4.85719C5.25164 12.7143 5.57145 12.3945 5.57145 12ZM4.92899 18.061L6.44405 16.5459C6.72086 16.2786 7.15971 16.2786 7.43647 16.5459C7.72019 16.82 7.72808 17.2722 7.45402 17.556L5.93896 19.071C5.66219 19.3383 5.22335 19.3383 4.94653 19.071C4.66281 18.7969 4.65492 18.3448 4.92899 18.061ZM12 18.4286C11.6055 18.4286 11.2857 18.7484 11.2857 19.1429V21.2857C11.2857 21.6803 11.6055 22.0001 12 22.0001C12.3945 22.0001 12.7143 21.6803 12.7143 21.2857V19.1429C12.7143 18.7484 12.3945 18.4286 12 18.4286ZM16.5459 16.5635C16.8199 16.2798 17.2721 16.2719 17.5559 16.5459L19.071 18.061C19.3383 18.3379 19.3383 18.7766 19.071 19.0535C18.7969 19.3372 18.3447 19.3451 18.0609 19.071L16.5459 17.556C16.2786 17.2791 16.2786 16.8403 16.5459 16.5635ZM21.2857 11.2857H19.1428C18.7483 11.2857 18.4285 11.6055 18.4285 12C18.4285 12.3945 18.7483 12.7143 19.1428 12.7143H21.2857C21.6802 12.7143 22 12.3945 22 12C22 11.6055 21.6802 11.2857 21.2857 11.2857ZM19.071 5.93901L17.5559 7.45407C17.2791 7.72144 16.8403 7.72144 16.5634 7.45407C16.2797 7.18001 16.2718 6.72782 16.5459 6.44405L18.0609 4.92899C18.0667 4.92307 18.0725 4.9172 18.0785 4.91144C18.3623 4.63738 18.8144 4.64522 19.0885 4.92899C19.3626 5.21276 19.3547 5.66495 19.071 5.93901Z" fill="#8E979C"/>
</svg>
