<svg width="96" height="21" viewBox="0 0 96 21" fill="none" xmlns="http://www.w3.org/2000/svg">
<mask id="mask0" mask-type="alpha" maskUnits="userSpaceOnUse" x="0" y="0" width="31" height="21">
<path fill-rule="evenodd" clip-rule="evenodd" d="M0 0H30.3563V21H0V0Z" fill="white"/>
</mask>
<g mask="url(#mask0)">
<path fill-rule="evenodd" clip-rule="evenodd" d="M29.7215 3.27894C29.3722 1.98841 28.3432 0.971731 27.0365 0.626748C24.668 0 15.1705 0 15.1705 0C15.1705 0 5.67324 0 3.30474 0.626748C1.99799 0.971731 0.968985 1.98841 0.619735 3.27894C-0.0150146 5.61875 -0.0150146 10.4999 -0.0150146 10.4999C-0.0150146 10.4999 -0.0150146 15.3812 0.619735 17.7208C0.968985 19.0113 1.99799 20.0283 3.30474 20.373C5.67324 21 15.1705 21 15.1705 21C15.1705 21 24.668 21 27.0365 20.373C28.3432 20.0283 29.3722 19.0113 29.7215 17.7208C30.3562 15.3812 30.3562 10.4999 30.3562 10.4999C30.3562 10.4999 30.3562 5.61875 29.7215 3.27894Z" fill="#D9252A"/>
</g>
<path fill-rule="evenodd" clip-rule="evenodd" d="M12.1335 14.9999L20.0238 10.5001L12.1335 5.99976V14.9999Z" fill="#FFFFFE"/>
<path fill-rule="evenodd" clip-rule="evenodd" d="M47.4352 17.0449C47.6015 16.616 47.685 15.9151 47.685 14.9427V10.8448C47.685 9.90078 47.6015 9.21081 47.4352 8.77446C47.2687 8.33835 46.9755 8.12005 46.5557 8.12005C46.1502 8.12005 45.864 8.33835 45.6977 8.77446C45.5312 9.21081 45.448 9.90078 45.448 10.8448V14.9427C45.448 15.9151 45.5275 16.616 45.687 17.0449C45.846 17.4741 46.1355 17.6885 46.5557 17.6885C46.9755 17.6885 47.2687 17.4741 47.4352 17.0449ZM44.069 19.1044C43.4677 18.7044 43.0405 18.0821 42.7875 17.238C42.534 16.3944 42.4075 15.2716 42.4075 13.8699V11.9605C42.4075 10.5446 42.552 9.40737 42.8417 8.54923C43.1312 7.6911 43.5835 7.06558 44.1992 6.6722C44.8145 6.27882 45.6217 6.082 46.621 6.082C47.6055 6.082 48.3945 6.28252 48.9882 6.68282C49.5817 7.08336 50.0162 7.70912 50.2915 8.5601C50.5662 9.41107 50.704 10.5446 50.704 11.9605V13.8699C50.704 15.2716 50.57 16.3979 50.3022 17.2489C50.0342 18.0999 49.5997 18.7222 48.999 19.115C48.398 19.5084 47.5837 19.7052 46.5557 19.7052C45.4985 19.7052 44.6695 19.5047 44.069 19.1044Z" fill="#FFFFFE"/>
<path fill-rule="evenodd" clip-rule="evenodd" d="M90.5792 8.36606C90.4275 8.55201 90.3257 8.856 90.2752 9.27779C90.2242 9.69982 90.1995 10.3397 90.1995 11.1978V12.1419H92.3927V11.1978C92.3927 10.3542 92.3637 9.71414 92.306 9.27779C92.248 8.84168 92.1432 8.53423 91.9912 8.35544C91.839 8.17666 91.6037 8.08701 91.2852 8.08701C90.9665 8.08701 90.7312 8.18036 90.5792 8.36606ZM90.1993 13.901V14.5663C90.1993 15.4101 90.2241 16.0431 90.2751 16.4648C90.3256 16.8869 90.4303 17.1943 90.5901 17.3874C90.7493 17.5805 90.9951 17.6771 91.3286 17.6771C91.7771 17.6771 92.0851 17.5055 92.2516 17.162C92.4178 16.819 92.5083 16.2468 92.5228 15.4457L95.1076 15.5958C95.1221 15.7107 95.1293 15.868 95.1293 16.068C95.1293 17.2837 94.7928 18.192 94.1193 18.7928C93.4463 19.3931 92.4938 19.6936 91.2633 19.6936C89.7866 19.6936 88.7511 19.2363 88.1576 18.3206C87.5636 17.4057 87.2668 15.9895 87.2668 14.0727V11.7771C87.2668 9.80323 87.5746 8.36255 88.1901 7.45404C88.8053 6.54602 89.8588 6.09189 91.3503 6.09189C92.3781 6.09189 93.1673 6.27784 93.7176 6.64949C94.2676 7.02164 94.6551 7.60097 94.8796 8.38749C95.1041 9.17426 95.2163 10.2613 95.2163 11.6484V13.901H90.1993Z" fill="#FFFFFE"/>
<path fill-rule="evenodd" clip-rule="evenodd" d="M36.7706 13.6548L33.3606 1.4903H36.3361L37.5306 7.0041C37.8348 8.36304 38.0591 9.52146 38.2038 10.4796H38.2908C38.3921 9.7931 38.6166 8.64184 38.9641 7.02558L40.2021 1.4903H43.1776L39.7243 13.6548V19.4906H36.7706V13.6548Z" fill="#FFFFFE"/>
<path fill-rule="evenodd" clip-rule="evenodd" d="M60.3815 6.33932V19.4907H58.0358L57.775 17.8816H57.71C57.0728 19.0973 56.117 19.705 54.843 19.705C53.9598 19.705 53.3083 19.4193 52.8883 18.8469C52.4683 18.2752 52.2585 17.381 52.2585 16.1653V6.33932H55.2558V15.9937C55.2558 16.5804 55.321 16.9985 55.4513 17.2486C55.5815 17.499 55.7988 17.624 56.1028 17.624C56.3635 17.624 56.6133 17.5457 56.852 17.3879C57.091 17.2309 57.2683 17.0308 57.3843 16.7876V6.33932H60.3815Z" fill="#FFFFFE"/>
<path fill-rule="evenodd" clip-rule="evenodd" d="M75.7556 6.33932V19.4907H73.4098L73.1491 17.8816H73.0843C72.4466 19.0973 71.4911 19.705 70.2171 19.705C69.3338 19.705 68.6823 19.4193 68.2623 18.8469C67.8423 18.2752 67.6326 17.381 67.6326 16.1653V6.33932H70.6298V15.9937C70.6298 16.5804 70.6948 16.9985 70.8251 17.2486C70.9556 17.499 71.1728 17.624 71.4768 17.624C71.7376 17.624 71.9873 17.5457 72.2261 17.3879C72.4651 17.2309 72.6423 17.0308 72.7583 16.7876V6.33932H75.7556Z" fill="#FFFFFE"/>
<path fill-rule="evenodd" clip-rule="evenodd" d="M68.5261 3.87214H65.5506V19.4907H62.6186V3.87214H59.6431V1.49084H68.5261V3.87214Z" fill="#FFFFFE"/>
<path fill-rule="evenodd" clip-rule="evenodd" d="M82.9279 13.806C82.9279 14.7643 82.8877 15.5153 82.8082 16.0586C82.7287 16.6026 82.5947 16.9886 82.4064 17.2173C82.2182 17.4462 81.9644 17.5605 81.6464 17.5605C81.3999 17.5605 81.1719 17.5035 80.9622 17.3886C80.7519 17.2743 80.5822 17.1029 80.4517 16.8738V9.40785C80.5529 9.05077 80.7267 8.7574 80.9729 8.52823C81.2192 8.29981 81.4867 8.18522 81.7764 8.18522C82.0807 8.18522 82.3157 8.30326 82.4824 8.5391C82.6487 8.77493 82.7647 9.17202 82.8299 9.72987C82.8952 10.2875 82.9279 11.0814 82.9279 12.1112V13.806ZM85.6752 8.44158C85.494 7.61233 85.2007 7.01176 84.7955 6.63962C84.39 6.26796 83.8325 6.08201 83.1232 6.08201C82.573 6.08201 82.059 6.23586 81.5812 6.54306C81.1035 6.85075 80.734 7.25476 80.4735 7.75532H80.4515L80.4517 0.825531H77.5632V19.4904H80.039L80.3432 18.2463H80.4082C80.6397 18.6896 80.9872 19.04 81.4507 19.2976C81.914 19.5549 82.4282 19.6835 82.993 19.6835C84.0062 19.6835 84.752 19.2222 85.23 18.2999C85.7077 17.3771 85.9467 15.9364 85.9467 13.9769V11.8959C85.9467 10.4228 85.856 9.27156 85.6752 8.44158Z" fill="#FFFFFE"/>
</svg>
