<svg xmlns="http://www.w3.org/2000/svg" width="24" height="20" viewBox="0 0 28 20"><path fill="#828E95" fill-rule="evenodd" d="M25.522 9.782c.017-1.55-.16-3.18-.573-5.284-.144-.735-.503-1.292-1.092-1.701-.44-.306-.954-.455-1.57-.455a797.094 797.094 0 0 0-3.788-.001h-1.62l-3.229-.002c-2.69-.001-5.38-.001-8.07.002-1.345 0-2.357.793-2.64 2.066a16.4 16.4 0 0 0-.337 2.068l-.008.079c-.113 1.22-.23 2.481-.245 3.72-.023 1.7.24 3.413.528 5.012.272 1.517 1.268 2.352 2.803 2.352h.004l3.536-.001h6.57c2.166.004 4.328.005 6.496 0 1.347-.002 2.36-.794 2.642-2.067.162-.725.276-1.421.338-2.068l.022-.235c.108-1.144.22-2.325.233-3.485zm1.11-5.392c.249 1.57.477 3.107.543 4.663.062 1.478-.02 3.009-.254 4.677-.11.779-.222 1.54-.39 2.296a4.16 4.16 0 0 1-4.049 3.265c-2.164.012-4.33.014-6.5.01l-2.363-.002c-.809 0-1.617-.004-2.426-.008-1.808-.005-3.678-.016-5.516.019h-.078c-1.848 0-3.98-1.176-4.376-3.792l-.057-.376c-.201-1.33-.41-2.705-.464-4.084-.001-.03-.01-.057-.016-.085L.671 10.9.666 9.115l.001-.012c.016-.181.028-.362.042-.544.028-.404.057-.808.112-1.21l.082-.622c.122-.913.247-1.858.442-2.777C1.743 2.069 3.446.697 5.393.686c2.172-.012 4.345-.01 6.52-.008l2.444.001c.804-.01 1.606.003 2.41.007a212 212 0 0 0 5.404-.019h.096c2.227 0 4.015 1.519 4.364 3.723zm-10.53 5.599l-4.14-2.399v4.804l4.14-2.405zm-5.815 5.295V4.693l9.133 5.296-9.133 5.295z"/></svg>